<?xml version="1.0" encoding="UTF-8"?>
<svg width="512" height="512" viewBox="0 0 512 512" fill="none" xmlns="http://www.w3.org/2000/svg">
  <rect width="512" height="512" fill="#4F46E5"/>
  <path d="M128 320h256v64H128v-64zm32-192h192c17.7 0 32 14.3 32 32v128H128V160c0-17.7 14.3-32 32-32zM96 160v224c0 17.7 14.3 32 32 32h256c17.7 0 32-14.3 32-32V160c0-53-43-96-96-96H192c-53 0-96 43-96 96zm32 256c-17.7 0-32 14.3-32 32s14.3 32 32 32 32-14.3 32-32-14.3-32-32-32zm256 0c-17.7 0-32 14.3-32 32s14.3 32 32 32 32-14.3 32-32-14.3-32-32-32z" fill="white"/>
</svg> 